<mxfile host="app.diagrams.net" agent="Mozilla/5.0 (Windows NT 10.0; Win64; x64) AppleWebKit/537.36 (KHTML, like Gecko) Chrome/134.0.0.0 Safari/537.36 Edg/134.0.0.0" version="26.1.0">
  <diagram name="Page-1" id="QG35j7kPHG6dron8eKFu">
    <mxGraphModel dx="1278" dy="1141" grid="0" gridSize="10" guides="1" tooltips="1" connect="1" arrows="1" fold="1" page="0" pageScale="1" pageWidth="827" pageHeight="1169" math="0" shadow="0">
      <root>
        <mxCell id="0" />
        <mxCell id="1" parent="0" />
        <mxCell id="6eh-BqLAyIL026c5Pfip-1" value="GLProgram" style="swimlane;fontStyle=1;align=center;verticalAlign=top;childLayout=stackLayout;horizontal=1;startSize=26;horizontalStack=0;resizeParent=1;resizeParentMax=0;resizeLast=0;collapsible=1;marginBottom=0;whiteSpace=wrap;html=1;" vertex="1" parent="1">
          <mxGeometry x="153" y="164" width="160" height="86" as="geometry" />
        </mxCell>
        <mxCell id="6eh-BqLAyIL026c5Pfip-2" value="+ field: type" style="text;strokeColor=none;fillColor=none;align=left;verticalAlign=top;spacingLeft=4;spacingRight=4;overflow=hidden;rotatable=0;points=[[0,0.5],[1,0.5]];portConstraint=eastwest;whiteSpace=wrap;html=1;" vertex="1" parent="6eh-BqLAyIL026c5Pfip-1">
          <mxGeometry y="26" width="160" height="26" as="geometry" />
        </mxCell>
        <mxCell id="6eh-BqLAyIL026c5Pfip-3" value="" style="line;strokeWidth=1;fillColor=none;align=left;verticalAlign=middle;spacingTop=-1;spacingLeft=3;spacingRight=3;rotatable=0;labelPosition=right;points=[];portConstraint=eastwest;strokeColor=inherit;" vertex="1" parent="6eh-BqLAyIL026c5Pfip-1">
          <mxGeometry y="52" width="160" height="8" as="geometry" />
        </mxCell>
        <mxCell id="6eh-BqLAyIL026c5Pfip-4" value="+ method(type): type" style="text;strokeColor=none;fillColor=none;align=left;verticalAlign=top;spacingLeft=4;spacingRight=4;overflow=hidden;rotatable=0;points=[[0,0.5],[1,0.5]];portConstraint=eastwest;whiteSpace=wrap;html=1;" vertex="1" parent="6eh-BqLAyIL026c5Pfip-1">
          <mxGeometry y="60" width="160" height="26" as="geometry" />
        </mxCell>
        <mxCell id="6eh-BqLAyIL026c5Pfip-14" style="edgeStyle=orthogonalEdgeStyle;rounded=0;orthogonalLoop=1;jettySize=auto;html=1;endArrow=diamondThin;endFill=0;endSize=20;" edge="1" parent="1" source="6eh-BqLAyIL026c5Pfip-5" target="6eh-BqLAyIL026c5Pfip-9">
          <mxGeometry relative="1" as="geometry" />
        </mxCell>
        <mxCell id="6eh-BqLAyIL026c5Pfip-5" value="VertexArray" style="swimlane;fontStyle=1;align=center;verticalAlign=top;childLayout=stackLayout;horizontal=1;startSize=26;horizontalStack=0;resizeParent=1;resizeParentMax=0;resizeLast=0;collapsible=1;marginBottom=0;whiteSpace=wrap;html=1;" vertex="1" parent="1">
          <mxGeometry x="455" y="193" width="245" height="153" as="geometry" />
        </mxCell>
        <mxCell id="6eh-BqLAyIL026c5Pfip-6" value="- m_id : GLuint&lt;div&gt;- m_bufferObjcets : vector&amp;lt;VertexBuffer*&amp;gt;&lt;/div&gt;&lt;div&gt;- m_dirty : bool&lt;/div&gt;" style="text;strokeColor=none;fillColor=none;align=left;verticalAlign=top;spacingLeft=4;spacingRight=4;overflow=hidden;rotatable=0;points=[[0,0.5],[1,0.5]];portConstraint=eastwest;whiteSpace=wrap;html=1;" vertex="1" parent="6eh-BqLAyIL026c5Pfip-5">
          <mxGeometry y="26" width="245" height="55" as="geometry" />
        </mxCell>
        <mxCell id="6eh-BqLAyIL026c5Pfip-7" value="" style="line;strokeWidth=1;fillColor=none;align=left;verticalAlign=middle;spacingTop=-1;spacingLeft=3;spacingRight=3;rotatable=0;labelPosition=right;points=[];portConstraint=eastwest;strokeColor=inherit;" vertex="1" parent="6eh-BqLAyIL026c5Pfip-5">
          <mxGeometry y="81" width="245" height="8" as="geometry" />
        </mxCell>
        <mxCell id="6eh-BqLAyIL026c5Pfip-8" value="+ VertexShader()&lt;div&gt;+ SetBuffer(string, VertexBuffer*) : void&lt;/div&gt;&lt;div&gt;+ GetVertexCount() : int&lt;/div&gt;&lt;div&gt;+ GetID() : GLuint&lt;/div&gt;" style="text;strokeColor=none;fillColor=none;align=left;verticalAlign=top;spacingLeft=4;spacingRight=4;overflow=hidden;rotatable=0;points=[[0,0.5],[1,0.5]];portConstraint=eastwest;whiteSpace=wrap;html=1;" vertex="1" parent="6eh-BqLAyIL026c5Pfip-5">
          <mxGeometry y="89" width="245" height="64" as="geometry" />
        </mxCell>
        <mxCell id="6eh-BqLAyIL026c5Pfip-9" value="VertexBuffer" style="swimlane;fontStyle=1;align=center;verticalAlign=top;childLayout=stackLayout;horizontal=1;startSize=26;horizontalStack=0;resizeParent=1;resizeParentMax=0;resizeLast=0;collapsible=1;marginBottom=0;whiteSpace=wrap;html=1;" vertex="1" parent="1">
          <mxGeometry x="455" y="558" width="245" height="208" as="geometry" />
        </mxCell>
        <mxCell id="6eh-BqLAyIL026c5Pfip-10" value="- m_id : GLuint&lt;div&gt;- m_components : int&lt;/div&gt;&lt;div&gt;- m_dirty : bool&lt;/div&gt;&lt;div&gt;- m_data : vector&amp;lt;GLfloat&amp;gt;&lt;/div&gt;" style="text;strokeColor=none;fillColor=none;align=left;verticalAlign=top;spacingLeft=4;spacingRight=4;overflow=hidden;rotatable=0;points=[[0,0.5],[1,0.5]];portConstraint=eastwest;whiteSpace=wrap;html=1;" vertex="1" parent="6eh-BqLAyIL026c5Pfip-9">
          <mxGeometry y="26" width="245" height="66" as="geometry" />
        </mxCell>
        <mxCell id="6eh-BqLAyIL026c5Pfip-11" value="" style="line;strokeWidth=1;fillColor=none;align=left;verticalAlign=middle;spacingTop=-1;spacingLeft=3;spacingRight=3;rotatable=0;labelPosition=right;points=[];portConstraint=eastwest;strokeColor=inherit;" vertex="1" parent="6eh-BqLAyIL026c5Pfip-9">
          <mxGeometry y="92" width="245" height="8" as="geometry" />
        </mxCell>
        <mxCell id="6eh-BqLAyIL026c5Pfip-12" value="+ VertexBuffer(int)&lt;div&gt;+ Add(vec2) : void&lt;/div&gt;&lt;div&gt;+ Add(vec3) : void&lt;/div&gt;&lt;div&gt;+ Add(vec4) : void&lt;/div&gt;&lt;div&gt;+ GetComponents() : int&lt;/div&gt;&lt;div&gt;+ GetDataSize() : int&lt;/div&gt;&lt;div&gt;+ GetID() : GLuint&lt;/div&gt;" style="text;strokeColor=none;fillColor=none;align=left;verticalAlign=top;spacingLeft=4;spacingRight=4;overflow=hidden;rotatable=0;points=[[0,0.5],[1,0.5]];portConstraint=eastwest;whiteSpace=wrap;html=1;" vertex="1" parent="6eh-BqLAyIL026c5Pfip-9">
          <mxGeometry y="100" width="245" height="108" as="geometry" />
        </mxCell>
        <mxCell id="6eh-BqLAyIL026c5Pfip-15" value="Texture" style="swimlane;fontStyle=1;align=center;verticalAlign=top;childLayout=stackLayout;horizontal=1;startSize=26;horizontalStack=0;resizeParent=1;resizeParentMax=0;resizeLast=0;collapsible=1;marginBottom=0;whiteSpace=wrap;html=1;" vertex="1" parent="1">
          <mxGeometry x="124" y="552.5" width="245" height="219" as="geometry" />
        </mxCell>
        <mxCell id="6eh-BqLAyIL026c5Pfip-16" value="- m_id : GLuint&lt;div&gt;- m_data : vector&amp;lt;uchar&amp;gt;&lt;/div&gt;&lt;div&gt;- m_size : ivec2&lt;/div&gt;&lt;div&gt;- m_dirty : bool&lt;/div&gt;" style="text;strokeColor=none;fillColor=none;align=left;verticalAlign=top;spacingLeft=4;spacingRight=4;overflow=hidden;rotatable=0;points=[[0,0.5],[1,0.5]];portConstraint=eastwest;whiteSpace=wrap;html=1;" vertex="1" parent="6eh-BqLAyIL026c5Pfip-15">
          <mxGeometry y="26" width="245" height="60" as="geometry" />
        </mxCell>
        <mxCell id="6eh-BqLAyIL026c5Pfip-17" value="" style="line;strokeWidth=1;fillColor=none;align=left;verticalAlign=middle;spacingTop=-1;spacingLeft=3;spacingRight=3;rotatable=0;labelPosition=right;points=[];portConstraint=eastwest;strokeColor=inherit;" vertex="1" parent="6eh-BqLAyIL026c5Pfip-15">
          <mxGeometry y="86" width="245" height="8" as="geometry" />
        </mxCell>
        <mxCell id="6eh-BqLAyIL026c5Pfip-18" value="+ Texture(const string&amp;amp;)&lt;div&gt;+ Texture(ivec2)&lt;/div&gt;&lt;div&gt;+ size(ivec2) : void&lt;/div&gt;&lt;div&gt;+ size() : const ivec2&lt;/div&gt;&lt;div&gt;+ load(const string&amp;amp;) : void&lt;/div&gt;&lt;div&gt;+ pixel(ivec2, vec4) : void&lt;/div&gt;&lt;div&gt;+ pixel(ivec2) : const vec4&lt;/div&gt;&lt;div&gt;+ id() : GLuint&lt;/div&gt;" style="text;strokeColor=none;fillColor=none;align=left;verticalAlign=top;spacingLeft=4;spacingRight=4;overflow=hidden;rotatable=0;points=[[0,0.5],[1,0.5]];portConstraint=eastwest;whiteSpace=wrap;html=1;" vertex="1" parent="6eh-BqLAyIL026c5Pfip-15">
          <mxGeometry y="94" width="245" height="125" as="geometry" />
        </mxCell>
      </root>
    </mxGraphModel>
  </diagram>
</mxfile>
